<svg xmlns="http://www.w3.org/2000/svg" viewBox="0 0 512 512" role="img">
  <defs>
    <linearGradient id="bg" x1="82" y1="40" x2="430" y2="472" gradientUnits="userSpaceOnUse">
      <stop offset="0" stop-color="#20252b"/>
      <stop offset="1" stop-color="#0c1014"/>
    </linearGradient>
    <linearGradient id="gold" x1="130" y1="68" x2="386" y2="448" gradientUnits="userSpaceOnUse">
      <stop offset="0" stop-color="#ffe39b"/>
      <stop offset="1" stop-color="#b77918"/>
    </linearGradient>
    <linearGradient id="teal" x1="82" y1="406" x2="430" y2="406" gradientUnits="userSpaceOnUse">
      <stop offset="0" stop-color="#43d6be"/>
      <stop offset="1" stop-color="#164f52"/>
    </linearGradient>
    <linearGradient id="sea" x1="150" y1="184" x2="210" y2="352" gradientUnits="userSpaceOnUse">
      <stop offset="0" stop-color="#9bd7f5"/>
      <stop offset=".6" stop-color="#0b8995"/>
      <stop offset="1" stop-color="#093640"/>
    </linearGradient>
    <linearGradient id="sunset" x1="214" y1="124" x2="316" y2="348" gradientUnits="userSpaceOnUse">
      <stop offset="0" stop-color="#d7e3ed"/>
      <stop offset=".52" stop-color="#e9b35f"/>
      <stop offset="1" stop-color="#173947"/>
    </linearGradient>
  </defs>
  <rect width="512" height="512" rx="116" fill="url(#bg)"/>
  <rect x="58" y="50" width="396" height="406" rx="88" fill="none" stroke="url(#gold)" stroke-width="14"/>
  <path d="M94 411c54 29 260 31 322 2" fill="none" stroke="url(#teal)" stroke-width="12" stroke-linecap="round"/>

  <g transform="rotate(-14 183 270)">
    <rect x="112" y="158" width="142" height="226" rx="24" fill="#f2eee4"/>
    <rect x="123" y="171" width="120" height="200" rx="18" fill="url(#sea)"/>
    <path d="M123 315c31-32 64-31 120-8v64H123z" fill="#082831" opacity=".85"/>
    <path d="M123 269c29 9 61 5 120-21" fill="none" stroke="#f2e0af" stroke-width="7" opacity=".55"/>
  </g>

  <g transform="rotate(13 332 258)">
    <rect x="266" y="154" width="136" height="220" rx="24" fill="#f2eee4"/>
    <rect x="277" y="167" width="114" height="194" rx="18" fill="#1a2b28"/>
    <path d="M277 235h114v126H277z" fill="#7f4d1d" opacity=".9"/>
    <path d="M291 180c19 64 21 123 12 181M333 177c-20 69-18 127-2 184M371 181c-18 64-18 122-4 179" stroke="#f7cf7d" stroke-width="9" opacity=".36"/>
  </g>

  <g transform="rotate(-4 260 257)">
    <rect x="177" y="112" width="166" height="292" rx="28" fill="#f7f2e9"/>
    <rect x="190" y="127" width="140" height="262" rx="20" fill="url(#sunset)"/>
    <circle cx="306" cy="226" r="18" fill="#ffd472"/>
    <path d="M190 285l50-80 38 56 23-37 29 61v104H190z" fill="#17282c"/>
    <path d="M238 205l40 56 23-37" fill="none" stroke="#ffe1a0" stroke-width="5" opacity=".4"/>
  </g>

  <circle cx="365" cy="352" r="72" fill="#111316" stroke="url(#gold)" stroke-width="11"/>
  <circle cx="391" cy="326" r="13" fill="#ffe39b"/>
  <path d="M314 378l36-45 28 37 18-22 29 30z" fill="url(#gold)"/>
</svg>
